<svg width="856" height="286" viewBox="0 0 856 286" fill="none" xmlns="http://www.w3.org/2000/svg">
<rect width="856" height="286" fill="#FDFBEE"/>
<path d="M117.2 103.25L142.7 171.05H143L168.65 103.25H198.35V115.4L193.4 115.85C190.4 116.15 188.95 117.9 189.05 121.1L192.8 189.8L202.1 190.25V203H165.95V190.85L171.35 190.4C174.05 190.2 175.35 188.9 175.25 186.5L172.4 133.55H172.1L149 193.4H134.75L111.95 134.15H111.65L108.65 189.8L118.4 190.25V203H83V190.85L88.4 190.4C90.7 190.2 91.95 188.85 92.15 186.35L96.2 116.6L87.05 116V103.25H117.2ZM277.398 130.55V186.35C277.398 187.95 277.648 189.05 278.148 189.65C278.748 190.25 279.748 190.6 281.148 190.7L285.948 191V203H262.098V194.3L261.648 194.15C256.648 201.35 249.798 204.95 241.098 204.95C230.898 204.95 223.348 201.7 218.448 195.2C213.548 188.7 211.098 179.8 211.098 168.5C211.098 154.9 214.398 144.3 220.998 136.7C227.598 129.1 237.498 125.3 250.698 125.3C259.198 125.3 268.098 127.05 277.398 130.55ZM259.998 179.15V140.3C257.198 139 253.348 138.35 248.448 138.35C241.748 138.35 236.898 141.05 233.898 146.45C230.898 151.85 229.398 159 229.398 167.9C229.398 184.1 234.598 192.2 244.998 192.2C249.398 192.2 252.998 190.9 255.798 188.3C258.598 185.6 259.998 182.55 259.998 179.15ZM512.309 186.2V118.1H500.609C498.309 118.1 497.159 119.65 497.159 122.75V129.8L481.859 128.75V103.25H560.309V128.75L545.009 129.8V122.75C545.009 121.05 544.759 119.85 544.259 119.15C543.759 118.45 542.559 118.1 540.659 118.1H530.459V189.8L542.309 190.25V203H500.009V190.85L507.959 190.4C510.859 190.1 512.309 188.7 512.309 186.2ZM634.82 130.55V186.35C634.82 187.95 635.07 189.05 635.57 189.65C636.17 190.25 637.17 190.6 638.57 190.7L643.37 191V203H619.52V194.3L619.07 194.15C614.07 201.35 607.22 204.95 598.52 204.95C588.32 204.95 580.77 201.7 575.87 195.2C570.97 188.7 568.52 179.8 568.52 168.5C568.52 154.9 571.82 144.3 578.42 136.7C585.02 129.1 594.92 125.3 608.12 125.3C616.62 125.3 625.52 127.05 634.82 130.55ZM617.42 179.15V140.3C614.62 139 610.77 138.35 605.87 138.35C599.17 138.35 594.32 141.05 591.32 146.45C588.32 151.85 586.82 159 586.82 167.9C586.82 184.1 592.02 192.2 602.42 192.2C606.82 192.2 610.42 190.9 613.22 188.3C616.02 185.6 617.42 182.55 617.42 179.15Z" fill="#57B4BA"/>
<path d="M361.905 202.85C361.005 213.95 357.805 222.1 352.305 227.3C346.805 232.5 338.205 235.1 326.505 235.1C314.805 235.1 305.655 233.45 299.055 230.15V209.3L313.305 208.1V215.3C313.305 218 314.555 219.8 317.055 220.7C319.555 221.7 323.005 222.2 327.405 222.2C333.805 222.2 338.305 220.25 340.905 216.35C343.505 212.55 344.805 207.15 344.805 200.15V191.9C340.005 197.5 333.355 200.3 324.855 200.3C319.655 200.3 315.055 199.3 311.055 197.3C307.155 195.3 304.105 192.6 301.905 189.2C297.605 182.4 295.455 174.4 295.455 165.2C295.455 152.1 299.005 142.2 306.105 135.5C313.205 128.7 322.655 125.3 334.455 125.3C344.255 125.3 353.505 127.15 362.205 130.85V186.5C362.205 195 362.105 200.45 361.905 202.85ZM344.805 172.4V140.15C341.305 138.95 337.305 138.35 332.805 138.35C326.705 138.35 322.005 140.6 318.705 145.1C315.505 149.6 313.905 155.7 313.905 163.4C313.905 179.2 319.105 187.1 329.505 187.1C333.805 187.1 337.405 185.8 340.305 183.2C343.305 180.5 344.805 176.9 344.805 172.4ZM679.427 96.05V190.55L687.977 191V203H652.277V191.6L657.227 191.15C660.127 190.85 661.577 189.25 661.577 186.35V112.4C661.577 110.2 660.327 109 657.827 108.8L652.577 108.5V96.05H679.427Z" fill="#FE4F2D"/>
<path d="M409.782 192.05C420.682 192.05 426.132 183.25 426.132 165.65C426.132 156.75 424.882 150 422.382 145.4C419.982 140.8 415.882 138.5 410.082 138.5C404.382 138.5 400.182 140.7 397.482 145.1C394.782 149.5 393.432 155.5 393.432 163.1C393.432 177.2 396.032 186.05 401.232 189.65C403.532 191.25 406.382 192.05 409.782 192.05ZM375.282 165.2C375.282 157.8 376.382 151.4 378.582 146C380.782 140.5 383.732 136.3 387.432 133.4C394.532 128 402.382 125.3 410.982 125.3C416.982 125.3 422.032 126.3 426.132 128.3C430.332 130.2 433.582 132.45 435.882 135.05C438.282 137.55 440.282 141.25 441.882 146.15C443.582 150.95 444.432 156.65 444.432 163.25C444.432 177.05 441.082 187.5 434.382 194.6C427.682 201.7 419.082 205.25 408.582 205.25C398.182 205.25 390.032 201.9 384.132 195.2C378.232 188.4 375.282 178.4 375.282 165.2ZM706.555 186.2V113.15C706.555 111.55 706.255 110.45 705.655 109.85C705.155 109.25 704.205 108.9 702.805 108.8L697.555 108.5V96.05H724.255V161C729.755 160.5 734.555 158.8 738.655 155.9C742.755 153 745.555 149.2 747.055 144.5C747.355 143.5 747.505 142.7 747.505 142.1C747.505 140.4 746.555 139.55 744.655 139.55L738.955 139.25V127.55H770.005V139.7L762.805 140C761.505 150.2 757.105 158.25 749.605 164.15L764.305 190.55L773.455 191V203H751.555L734.455 171.8C731.155 172.7 727.755 173.4 724.255 173.9V190.55H724.405L732.955 191V203H697.255V191.6L702.205 191.15C703.705 190.95 704.805 190.55 705.505 189.95C706.205 189.25 706.555 188 706.555 186.2Z" fill="#015551"/>
</svg>
